<?xml version="1.0" standalone="no"?>
<!DOCTYPE svg PUBLIC "-//W3C//DTD SVG 20010904//EN"
 "http://www.w3.org/TR/2001/REC-SVG-20010904/DTD/svg10.dtd">
<svg version="1.0" xmlns="http://www.w3.org/2000/svg"
 width="700.000000pt" height="700.000000pt" viewBox="0 0 700.000000 700.000000"
 preserveAspectRatio="xMidYMid meet">
<metadata>
Created by potrace 1.14, written by Peter Selinger 2001-2017
</metadata>
<g transform="translate(0.000000,700.000000) scale(0.100000,-0.100000)"
fill="#000000" stroke="none">
<path d="M530 6979 c-259 -66 -455 -266 -514 -524 -14 -62 -16 -217 -15 -1410
0 -1504 -5 -1407 75 -1570 91 -188 262 -321 469 -368 102 -24 1135 -25 1246
-2 235 48 432 226 517 468 23 67 25 87 28 302 9 542 6 494 41 566 18 36 52 84
75 108 47 46 143 97 198 105 19 3 159 6 310 7 237 1 285 4 350 21 208 54 388
211 469 408 49 120 51 154 51 735 0 592 -3 637 -57 758 -85 194 -265 346 -469
396 -76 19 -128 19 -1389 20 -1263 0 -1313 -1 -1385 -20z m2683 -302 c20 -4
45 -11 55 -16 71 -35 92 -49 130 -85 51 -49 74 -84 98 -151 15 -45 17 -102 19
-575 1 -539 -1 -576 -39 -663 -20 -46 -88 -121 -136 -152 -82 -52 -122 -57
-434 -60 -262 -3 -299 -5 -371 -25 -118 -32 -207 -83 -294 -170 -92 -91 -103
-106 -146 -195 -63 -132 -67 -164 -70 -531 -2 -233 -6 -343 -15 -370 -46 -141
-148 -239 -281 -270 -46 -10 -1030 -12 -1098 -1 -108 16 -236 111 -278 206
-38 86 -39 123 -38 1446 1 710 5 1306 9 1325 31 139 169 268 307 288 63 9
2528 8 2582 -1z"/>
<path d="M2692 3461 l3 -796 795 -1 795 -1 -1 786 c-1 432 -2 791 -3 797 -1 8
-228 11 -796 11 l-795 0 2 -796z m1275 -1 l0 -480 -481 0 -481 0 0 480 0 480
481 0 482 0 -1 -480z"/>
<path d="M5195 3820 c-222 -47 -418 -206 -503 -407 -48 -113 -55 -171 -57
-468 -3 -281 -8 -333 -42 -400 -28 -54 -72 -103 -127 -139 -90 -60 -133 -66
-459 -66 -338 0 -395 -8 -532 -75 -144 -71 -246 -174 -318 -322 -18 -37 -34
-71 -34 -76 -1 -4 -9 -39 -17 -77 -14 -58 -16 -154 -16 -614 0 -625 2 -642 75
-793 37 -77 61 -109 128 -176 68 -69 98 -91 177 -129 169 -82 67 -77 1575 -77
1490 1 1412 -3 1560 69 179 87 301 227 361 415 21 65 27 106 31 223 4 116 2
142 -9 142 -12 0 -14 185 -15 1188 0 1322 3 1248 -69 1399 -35 73 -100 162
-153 211 -58 52 -173 120 -252 148 l-84 29 -590 2 c-324 1 -608 -3 -630 -7z
m1202 -324 c116 -39 216 -145 247 -263 10 -38 13 -327 13 -1363 0 -1276 0
-1316 -19 -1353 -41 -81 -118 -146 -218 -183 -41 -15 -163 -17 -1340 -18
-1204 -1 -1393 2 -1423 21 -7 4 -14 8 -17 8 -3 1 -23 10 -45 22 -81 42 -158
147 -181 244 -10 46 -11 1030 -1 1098 20 138 125 257 263 297 49 14 110 17
364 20 330 3 327 3 414 28 222 65 393 235 467 462 23 72 24 91 32 544 3 169 4
177 32 235 34 69 104 144 164 174 84 44 122 46 673 45 471 0 528 -2 575 -18z"/>
</g>
</svg>
