<svg xmlns="http://www.w3.org/2000/svg" width="35" height="35" viewBox="0 0 35 35">
  <g id="change_your_password" data-name="change your password" transform="translate(-283 -157)">
    <rect id="Rechteck_96" data-name="Rechteck 96" width="35" height="35" rx="10" transform="translate(283 157)" fill="#f2f2f2"/>
    <g id="Gruppe_321" data-name="Gruppe 321" transform="translate(-861 -7186)">
      <g id="Differenzmenge_12" data-name="Differenzmenge 12" transform="translate(1157 7350)" fill="none">
        <path d="M8,6H0V3H.012A3.847,3.847,0,0,1,1.275.445a4.075,4.075,0,0,1,5.45,0A3.846,3.846,0,0,1,7.988,3H8V6Z" stroke="none"/>
        <path d="M 6.50013542175293 4.500212669372559 L 6.50016975402832 3.20916223526001 L 6.49292516708374 3.116020202636719 C 6.446705341339111 2.521880149841309 6.171125411987305 1.967660069465637 5.716945171356201 1.555470108985901 C 5.25099515914917 1.132590174674988 4.641095161437988 0.8997001051902771 3.999595403671265 0.8997001051902771 C 3.358525276184082 0.8997001051902771 2.748945236206055 1.132560133934021 2.283125400543213 1.555390119552612 C 1.828975319862366 1.96763014793396 1.553435325622559 2.521820068359375 1.507285356521606 3.115880012512207 L 1.50000536441803 3.209593772888184 L 1.500445604324341 4.499587535858154 L 6.50013542175293 4.500212669372559 M 8.000095367431641 6.000400066375732 L 0.0009953537955880165 5.99940013885498 L 5.353851520339958e-06 2.99970006942749 L 0.01179535407572985 2.99970006942749 C 0.0877053514122963 2.022550106048584 0.5366953611373901 1.114840149879456 1.274965405464172 0.4447101056575775 C 2.017365455627441 -0.2291798889636993 2.985005378723145 -0.6002998948097229 3.999595403671265 -0.6002998948097229 C 5.014585494995117 -0.6002998948097229 5.982495307922363 -0.2291798889636993 6.725025177001953 0.4447101056575775 C 7.463715553283691 1.11512017250061 7.912395477294922 2.022500038146973 7.988405227661133 2.99970006942749 L 8.000175476074219 2.99970006942749 L 8.000095367431641 6.000400066375732 Z" stroke="none" fill="#2c262d"/>
      </g>
      <g id="Pfad_132" data-name="Pfad 132" transform="translate(1154.342 7354.764)" fill="#f2f2f2">
        <path d="M 11.71480846405029 9.274822235107422 L 1.378208756446838 9.274822235107422 C 1.031808733940125 9.274822235107422 0.7499988079071045 9.011651992797852 0.7499988079071045 8.68818187713623 L 0.7499988079071045 1.336642026901245 C 0.7499988079071045 1.013172030448914 1.031808733940125 0.7500020861625671 1.378208756446838 0.7500020861625671 L 11.71480846405029 0.7500020861625671 C 12.06120872497559 0.7500020861625671 12.34301853179932 1.013172030448914 12.34301853179932 1.336642026901245 L 12.34301853179932 8.68818187713623 C 12.34301853179932 9.011651992797852 12.06120872497559 9.274822235107422 11.71480846405029 9.274822235107422 Z" stroke="none"/>
        <path d="M 1.499999046325684 1.500001907348633 L 1.499999046325684 8.524822235107422 L 11.59301853179932 8.524822235107422 L 11.59301853179932 1.500001907348633 L 1.499999046325684 1.500001907348633 M 1.378209114074707 1.9073486328125e-06 L 11.71480846405029 1.9073486328125e-06 C 12.47596836090088 1.9073486328125e-06 13.09301853179932 0.5984325408935547 13.09301853179932 1.336642265319824 L 13.09301853179932 8.68818187713623 C 13.09301853179932 9.4263916015625 12.47596836090088 10.02482223510742 11.71480846405029 10.02482223510742 L 1.378209114074707 10.02482223510742 C 0.6170492172241211 10.02482223510742 -9.5367431640625e-07 9.4263916015625 -9.5367431640625e-07 8.68818187713623 L -9.5367431640625e-07 1.336642265319824 C -9.5367431640625e-07 0.5984325408935547 0.6170492172241211 1.9073486328125e-06 1.378209114074707 1.9073486328125e-06 Z" stroke="none" fill="#2c262d"/>
      </g>
      <g id="Ellipse_38" data-name="Ellipse 38" transform="translate(1159.684 7357.938)" fill="#fff" stroke="#2c262d" stroke-width="1.5">
        <ellipse cx="1.202" cy="1.202" rx="1.202" ry="1.202" stroke="none"/>
        <ellipse cx="1.202" cy="1.202" rx="0.452" ry="0.452" fill="none"/>
      </g>
      <line id="Linie_70" data-name="Linie 70" y1="2.673" transform="translate(1160.886 7359.006)" fill="none" stroke="#2c262d" stroke-linecap="round" stroke-width="1.5"/>
      <g id="Gruppe_320" data-name="Gruppe 320" transform="translate(1149 7360.684)">
        <g id="Rechteck_147" data-name="Rechteck 147" transform="translate(0 0.316)" fill="#fff" stroke="#2c262d" stroke-width="1.5">
          <rect width="24" height="8" rx="4" stroke="none"/>
          <rect x="0.75" y="0.75" width="22.5" height="6.5" rx="3.25" fill="none"/>
        </g>
        <text id="_" data-name="*****" transform="translate(4 8.316)" fill="#2c262d" font-size="7" font-family="Oscine-Bold, Oscine" font-weight="700" letter-spacing="0.1em"><tspan x="0" y="0">*****</tspan></text>
      </g>
    </g>
  </g>
</svg>
