<svg xmlns="http://www.w3.org/2000/svg" width="35" height="35" viewBox="0 0 35 35">
  <g id="change_color" data-name="change color" transform="translate(-283 -157)">
    <rect id="Rechteck_96" data-name="Rechteck 96" width="35" height="35" rx="10" transform="translate(283 157)" fill="#f2f2f2"/>
    <g id="Gruppe_338" data-name="Gruppe 338" transform="translate(-884.083 -7024.768)">
      <g id="Vereinigungsmenge_17" data-name="Vereinigungsmenge 17" transform="translate(1173.771 7192.338)" fill="none">
        <path d="M1.523,18.795a3.747,3.747,0,0,1-.664-5.426L6.121,7.593,2.463,4.935,6.049,0,17.892,8.6l-3.586,4.935-3.487-2.534L6.78,17.67a3.994,3.994,0,0,1-3.2,1.813A3.484,3.484,0,0,1,1.523,18.795Z" stroke="none"/>
        <path d="M 3.579890012741089 17.98356246948242 C 4.286882400512695 17.9835033416748 4.978388786315918 17.57627296447754 5.532118320465088 16.83547019958496 L 10.38088989257812 8.833221435546875 L 13.97425651550293 11.44387912750244 L 15.79650211334229 8.935922622680664 L 6.380752086639404 2.09516453742981 L 4.558499813079834 4.603129863739014 L 8.358550071716309 7.363951683044434 L 2.028676509857178 14.3125467300415 C 1.608090281486511 14.91673183441162 1.433167576789856 15.5541353225708 1.522539973258972 16.16014099121094 C 1.605569958686829 16.72319221496582 1.919049978256226 17.22784233093262 2.404860019683838 17.58086204528809 C 2.767699956893921 17.84434127807617 3.174019813537598 17.98359107971191 3.579890012741089 17.98356246948242 M 3.580019950866699 19.48356246948242 C 2.862499952316284 19.48362159729004 2.152679920196533 19.25151252746582 1.523469924926758 18.79459190368652 C -0.1112700775265694 17.60669136047363 -0.5800700783729553 15.34945201873779 0.8592499494552612 13.36887168884277 L 6.121220111846924 7.592561721801758 L 2.463249921798706 4.934971809387207 L 6.048929691314697 1.752319349179743e-06 L 17.89175033569336 8.604082107543945 L 14.30607986450195 13.53904151916504 L 10.81863021850586 11.00533199310303 L 6.780109882354736 17.67036247253418 C 5.895100116729736 18.88912200927734 4.727920055389404 19.48346138000488 3.580019950866699 19.48356246948242 Z" stroke="none" fill="#2c262d"/>
      </g>
      <path id="Differenzmenge_14" data-name="Differenzmenge 14" d="M0,0H12.788V9.149H0Z" transform="translate(1185.05 7186.713) rotate(36)" fill="#fff" stroke="#2c262d" stroke-width="1.5"/>
      <g id="Ellipse_43" data-name="Ellipse 43" transform="translate(1177.584 7205.792) rotate(36)" fill="#2c262d" stroke="#2c262d" stroke-width="1">
        <circle cx="1.22" cy="1.22" r="1.22" stroke="none"/>
        <circle cx="1.22" cy="1.22" r="0.72" fill="none"/>
      </g>
      <path id="Pfad_145" data-name="Pfad 145" d="M1180.552,7189.8c2.159,2.188,3.606-.717,5.074.145s-1.077,3.39.339,4.591,2.969-1.157,4.28-.528.264,2.9.445,3.635" transform="translate(1.491 0.675)" fill="none" stroke="#2c262d" stroke-width="1.5"/>
    </g>
  </g>
</svg>
