<svg xmlns="http://www.w3.org/2000/svg" width="17.211" height="16.888" viewBox="0 0 17.211 16.888">
  <g id="Gruppe_223" data-name="Gruppe 223" transform="translate(-312 -86)">
    <g id="Vereinigungsmenge_10" data-name="Vereinigungsmenge 10" transform="translate(312 86)" fill="none">
      <path d="M11.756,15.794a8.275,8.275,0,1,1,4.016-3.99l1.439,5.083Z" stroke="none"/>
      <path d="M 8.278199195861816 15.05810546875 C 9.272488594055176 15.05810546875 10.2305383682251 14.84789562225342 11.12573909759521 14.43331623077393 L 11.57045841217041 14.22735595703125 L 15.09897041320801 14.93485450744629 L 14.17545890808105 11.67288589477539 L 14.41501903533936 11.16489601135254 C 14.84181880950928 10.25983619689941 15.05822849273682 9.289305686950684 15.05822849273682 8.280276298522949 C 15.05822849273682 4.541885852813721 12.01671886444092 1.500485897064209 8.278199195861816 1.500485897064209 C 4.540688514709473 1.500485897064209 1.499998807907104 4.541885852813721 1.499998807907104 8.280276298522949 C 1.499998807907104 12.01758575439453 4.540688514709473 15.05810546875 8.278199195861816 15.05810546875 M 17.21093940734863 16.88818550109863 L 11.75609874725342 15.79443550109863 C 10.6986083984375 16.28417587280273 9.520388603210449 16.55810546875 8.278199195861816 16.55810546875 C 3.707768678665161 16.55810546875 -1.249999968422344e-06 12.8505859375 -1.249999968422344e-06 8.280276298522949 C -1.249999968422344e-06 3.708005905151367 3.707768678665161 0.0004859374894294888 8.278199195861816 0.0004859374894294888 C 12.85046863555908 0.0004859374894294888 16.55822944641113 3.708005905151367 16.55822944641113 8.280276298522949 C 16.55822944641113 9.540526390075684 16.27599906921387 10.73535633087158 15.771728515625 11.80468559265137 L 17.21093940734863 16.88818550109863 Z" stroke="none" fill="#2c262d"/>
    </g>
    <text id="_" data-name="?" transform="translate(317.175 98.887)" fill="#2c262d" font-size="12" font-family="Oscine-Bold, Oscine" font-weight="700"><tspan x="0" y="0">?</tspan></text>
  </g>
</svg>
