<svg xmlns="http://www.w3.org/2000/svg" width="31.38" height="31.38" viewBox="0 0 31.38 31.38">
  <g id="Gruppe_241" data-name="Gruppe 241" transform="translate(-558.164 -265.982) rotate(-45)">
    <path id="Pfad_121" data-name="Pfad 121" d="M279.7,383.728a15.885,15.885,0,0,0-3.273-1.432c-.416-.146-.987-4.765-.987-7.61s.571-7.465.987-7.61a15.917,15.917,0,0,0,3.273-1.433c.358-.413.222-5.676-.233-6.071a6.346,6.346,0,0,0-4.582-.648c-1.764.545-4.188,6.653-4.188,15.762s2.424,15.215,4.188,15.76a6.347,6.347,0,0,0,4.582-.647C279.925,389.405,280.061,384.14,279.7,383.728Z" transform="translate(-68.7 230.263)" fill="none" stroke="#2c262d" stroke-width="1.5"/>
    <g id="Gruppe_240" data-name="Gruppe 240" transform="translate(212.742 600.873)">
      <line id="Linie_45" data-name="Linie 45" x2="7.915" transform="translate(0 3.392)" fill="none" stroke="#2c262d" stroke-linecap="round" stroke-width="1.5"/>
      <path id="Pfad_122" data-name="Pfad 122" d="M1424.97,3112.51l2.613,3.592-2.613,3.5" transform="translate(-1418.785 -3112.51)" fill="none" stroke="#2c262d" stroke-linecap="round" stroke-width="1.5"/>
    </g>
  </g>
</svg>
