<svg id="Icon_Rechtsschutz" data-name="Icon Rechtsschutz" xmlns="http://www.w3.org/2000/svg" width="23" height="21" viewBox="0 0 23 21">
  <circle id="Ellipse_2" data-name="Ellipse 2" cx="1.5" cy="1.5" r="1.5" transform="translate(13 3) rotate(180)" fill="#fff"/>
  <g id="Vereinigungsmenge_8" data-name="Vereinigungsmenge 8" transform="translate(1485 -3090)" fill="none">
    <path d="M-1467,3106a4,4,0,0,1-4-4l4.5-11,4.5,11a4,4,0,0,1-4,4Z" stroke="none"/>
    <path d="M -1466.000122070312 3104.5 C -1464.709716796875 3104.5 -1463.64453125 3103.517822265625 -1463.51318359375 3102.26220703125 L -1466.499633789062 3094.961669921875 L -1469.486083984375 3102.26220703125 C -1469.354858398438 3103.517822265625 -1468.289916992188 3104.5 -1467 3104.5 L -1466.000122070312 3104.5 M -1466.000122070312 3106 L -1467 3106 C -1469.209594726562 3106 -1470.999633789062 3104.208984375 -1470.999633789062 3102.00048828125 L -1466.499633789062 3090.999755859375 L -1461.999633789062 3102.00048828125 C -1461.999633789062 3104.208984375 -1463.790649414062 3106 -1466.000122070312 3106 Z" stroke="none" fill="#fff"/>
  </g>
  <g id="Vereinigungsmenge_9" data-name="Vereinigungsmenge 9" transform="translate(1471 -3090)" fill="none">
    <path d="M-1467,3106a4,4,0,0,1-4-4l4.5-11,4.5,11a4,4,0,0,1-4,4Z" stroke="none"/>
    <path d="M -1466.000122070312 3104.5 C -1464.709716796875 3104.5 -1463.64453125 3103.517822265625 -1463.51318359375 3102.26220703125 L -1466.499633789062 3094.961669921875 L -1469.486083984375 3102.26220703125 C -1469.354858398438 3103.517822265625 -1468.289916992188 3104.5 -1467 3104.5 L -1466.000122070312 3104.5 M -1466.000122070312 3106 L -1467 3106 C -1469.209594726562 3106 -1470.999633789062 3104.208984375 -1470.999633789062 3102.00048828125 L -1466.499633789062 3090.999755859375 L -1461.999633789062 3102.00048828125 C -1461.999633789062 3104.208984375 -1463.790649414062 3106 -1466.000122070312 3106 Z" stroke="none" fill="#fff"/>
  </g>
  <line id="Linie_3" data-name="Linie 3" x1="14.5" transform="translate(4.2 1.257)" fill="none" stroke="#fff" stroke-width="1.5"/>
  <line id="Linie_4" data-name="Linie 4" y1="18.596" x2="0.063" transform="translate(11.5 1.257)" fill="none" stroke="#fff" stroke-width="1.5"/>
  <path id="Rechteck_25" data-name="Rechteck 25" d="M2,0H14a2,2,0,0,1,2,2V2a0,0,0,0,1,0,0H0A0,0,0,0,1,0,2V2A2,2,0,0,1,2,0Z" transform="translate(4 19)" fill="#fff"/>
</svg>
