<svg xmlns="http://www.w3.org/2000/svg" width="29.617" height="26.29" viewBox="0 0 29.617 26.29">
  <g id="Gruppe_132" data-name="Gruppe 132" transform="translate(-93.191 -17.607)">
    <path id="Pfad_85" data-name="Pfad 85" d="M13.394,7.186h8.327V2.524A1.528,1.528,0,0,0,20.19,1H2.531A1.528,1.528,0,0,0,1,2.524V13.464a1.527,1.527,0,0,0,1.531,1.523H5.564l.247,4.049,3.577-4.049,2.475-.049V8.709A1.527,1.527,0,0,1,13.394,7.186Z" transform="translate(92.941 17.357)" fill="rgba(0,0,0,0)" stroke="#2c262d" stroke-width="1.5"/>
    <path id="Pfad_86" data-name="Pfad 86" d="M41.214,27.211v8.736a1.528,1.528,0,0,0,1.531,1.524h7.336l3.577,4.049.247-4.049h3.032a1.528,1.528,0,0,0,1.531-1.524v-10.4a1.527,1.527,0,0,0-1.531-1.523H50.8" transform="translate(63.59 0.522)" fill="rgba(0,0,0,0)" stroke="#2c262d" stroke-width="1.5"/>
  </g>
</svg>
