<svg id="Icon_broker" data-name="Icon broker" xmlns="http://www.w3.org/2000/svg" width="15.427" height="19.157" viewBox="0 0 15.427 19.157">
  <circle id="Ellipse_2" data-name="Ellipse 2" cx="4.5" cy="4.5" r="4.5" transform="translate(3.214)" fill="#f2f2f2"/>
  <path id="Differenzmenge_4" data-name="Differenzmenge 4" d="M-1718.308,1506.548h-6.714l1.236-8.244c2.367.221,4,.986,5,2.337a7.556,7.556,0,0,1,1.209,4.661v.574A.706.706,0,0,1-1718.308,1506.548Zm-7.4,0h-6.558a.707.707,0,0,1-.735-.672v-.574a7.561,7.561,0,0,1,1.206-4.656c1-1.35,2.63-2.116,4.99-2.339l1.1,8.241Z" transform="translate(1733 -1487.391)" fill="#f2f2f2"/>
  <path id="Pfad_28" data-name="Pfad 28" d="M0,.5Z" transform="translate(5.214 17)" fill="#2c262d"/>
</svg>
