<svg xmlns="http://www.w3.org/2000/svg" width="21.357" height="24.499" viewBox="0 0 21.357 24.499">
  <g id="Icon_Tier" data-name="Icon Tier" transform="translate(0.75 0.749)">
    <path id="Pfad_154" data-name="Pfad 154" d="M296.253,177.182c-2.07,2.152-4.811,5.176-5.31,12" transform="translate(-286.223 -169.318)" fill="none" stroke="#fff" stroke-miterlimit="10" stroke-width="1.5"/>
    <path id="Pfad_155" data-name="Pfad 155" d="M290.935,181.121c-.252-1.053-2.475-3.193-4.187-3.749,1.249,2.452,2.752,5,2.225,7.307-.619,2.705-.749,3.7-.032,5.8a2.61,2.61,0,0,0,2.75,2.028c.778,0,6.83-.079,6.83-.079s.141-1.16-.437-1.633c-.437-.357-4.125-.267-4.125-.267s2.794-1.023,3.129-2.577c.393-1.818-1.184-3.6-1.184-3.6" transform="translate(-286.748 -169.508)" fill="none" stroke="#fff" stroke-linejoin="round" stroke-width="1.5"/>
    <path id="Pfad_156" data-name="Pfad 156" d="M297.652,190.037" transform="translate(-285.383 -167.923)" fill="none" stroke="#fff" stroke-miterlimit="10" stroke-width="1.5"/>
    <path id="Pfad_157" data-name="Pfad 157" d="M299.44,193.191s2.3.158,2.3-.083a1.388,1.388,0,0,0-.642-1.347c-.767-.512-1.3-.7-1.3-1.42s-.18-2.89.241-3.19,1.51-1.4,1.51-3.84a9.546,9.546,0,0,0-.485-2.662c-.506-1.1-1.18-2.191-1.012-2.654a2.31,2.31,0,0,1,1.886-1.315c.969-.042,2.175.48,2.639.439s.916-1.461.916-1.966-1.249-.917-1.777-1.473c-.276-.289-1.112-2.523-2.334-2.86s-4.574-1.249-5.248,1.32-.547,3.665-.083,4.256,1.826.069,2.333-.521-.186-2.173-.186-2.173" transform="translate(-285.632 -170.383)" fill="none" stroke="#fff" stroke-miterlimit="10" stroke-width="1.5"/>
  </g>
</svg>
