<svg xmlns="http://www.w3.org/2000/svg" width="20.866" height="22.367" viewBox="0 0 20.866 22.367">
  <g id="Icon_Haftpflicht" data-name="Icon Haftpflicht" transform="translate(0.5 0.5)">
    <g id="Gruppe_355" data-name="Gruppe 355" transform="translate(7.063)">
      <rect id="Rechteck_159" data-name="Rechteck 159" width="4.012" height="4.32" rx="1.64" transform="translate(0.686)" fill="none" stroke="#fff" stroke-miterlimit="10" stroke-width="1"/>
      <path id="Pfad_169" data-name="Pfad 169" d="M195.027,216.517v-1.709a2.168,2.168,0,0,1,2.161-2.162h.851a2.168,2.168,0,0,1,2.162,2.162v1.709" transform="translate(-195.027 -208.311)" fill="none" stroke="#fff" stroke-miterlimit="10" stroke-width="1"/>
    </g>
    <line id="Linie_76" data-name="Linie 76" x1="0.006" y2="3.559" transform="translate(12.178 15.634)" fill="none" stroke="#fff" stroke-miterlimit="10" stroke-width="1"/>
    <path id="Pfad_170" data-name="Pfad 170" d="M205.957,227.442s2.539-5.08,2.662-5.39a7.453,7.453,0,0,0,.226-1.615v-7.851c0-.349-.718-.809-1.267-.491-.577.336-1.267,1.056-1.232,1.412l-.035,5.875" transform="translate(-188.979 -208.249)" fill="none" stroke="#fff" stroke-miterlimit="10" stroke-width="1"/>
    <path id="Pfad_171" data-name="Pfad 171" d="M206.749,231.7v-2.459a.214.214,0,0,0-.211-.216h-6.951a.215.215,0,0,0-.212.216V231.7" transform="translate(-188.368 -209.833)" fill="none" stroke="#fff" stroke-miterlimit="10" stroke-width="1.5"/>
    <path id="Pfad_172" data-name="Pfad 172" d="M200.682,228.176s.009-2.9,0-3.344c-.015-.8,2.053-3.176,2.686-3.88a2.685,2.685,0,0,1,1.784-1.049c.634-.07.912.1.909.627s-2.387,3.818-2.387,3.818" transform="translate(-188.489 -208.983)" fill="none" stroke="#fff" stroke-miterlimit="10" stroke-width="1"/>
    <path id="Pfad_173" data-name="Pfad 173" d="M207.086,212.1a2.355,2.355,0,0,0-1.232,2.044l-.03,5.11a1.091,1.091,0,0,0-.674-.08,2.685,2.685,0,0,0-1.784,1.049,16.633,16.633,0,0,0-2.631,3.606l-.064.06-.006,3.558h4.8s2.539-5.08,2.662-5.39a7.453,7.453,0,0,0,.226-1.615v-7.851C208.353,212.237,207.635,211.777,207.086,212.1Z" transform="translate(-188.488 -208.249)" fill="none" stroke="#fff" stroke-miterlimit="10" stroke-width="1"/>
    <path id="Pfad_174" data-name="Pfad 174" d="M206.749,231.7v-2.459a.214.214,0,0,0-.211-.216h-6.951a.215.215,0,0,0-.212.216V231.7" transform="translate(-188.368 -209.833)" fill="none" stroke="#fff" stroke-miterlimit="10" stroke-width="1.5"/>
    <circle id="Ellipse_45" data-name="Ellipse 45" cx="0.228" cy="0.228" r="0.228" transform="translate(13.149 20.781)" fill="none" stroke="#fff" stroke-miterlimit="10" stroke-width="1"/>
    <path id="Pfad_175" data-name="Pfad 175" d="M200.682,228.176s.009-2.9,0-3.344c-.015-.8,2.053-3.176,2.686-3.88a2.685,2.685,0,0,1,1.784-1.049c.634-.07.912.1.909.627s-2.387,3.818-2.387,3.818" transform="translate(-188.489 -208.983)" fill="none" stroke="#fff" stroke-miterlimit="10" stroke-width="1"/>
    <path id="Pfad_176" data-name="Pfad 176" d="M206.154,219.415l.034-5.11a1.986,1.986,0,0,1,.052-.526l-.016,0a2.477,2.477,0,0,0-1.577.913,2.741,2.741,0,0,0-.395,1.27v3.917" transform="translate(-188.821 -208.415)" fill="none" stroke="#fff" stroke-miterlimit="10" stroke-width="1"/>
    <path id="Pfad_177" data-name="Pfad 177" d="M203.519,220.676a4.619,4.619,0,0,1,.552-.526v-3.236a2.179,2.179,0,0,0-1.408.912,2.986,2.986,0,0,0-.352,1.27v2.749l.143.074C202.886,221.39,203.293,220.926,203.519,220.676Z" transform="translate(-188.641 -208.707)" fill="none" stroke="#fff" stroke-miterlimit="10" stroke-width="1"/>
    <path id="Pfad_178" data-name="Pfad 178" d="M205.957,227.442s2.539-5.08,2.662-5.39a7.453,7.453,0,0,0,.226-1.615v-7.851c0-.349-.718-.809-1.267-.491-.577.336-1.267,1.056-1.232,1.412l-.035,5.875" transform="translate(-188.979 -208.249)" fill="none" stroke="#fff" stroke-miterlimit="10" stroke-width="1"/>
    <path id="Pfad_179" data-name="Pfad 179" d="M206.749,231.7v-2.459a.214.214,0,0,0-.211-.216h-6.951a.215.215,0,0,0-.212.216V231.7" transform="translate(-188.368 -209.833)" fill="none" stroke="#fff" stroke-miterlimit="10" stroke-width="1.5"/>
    <path id="Pfad_180" data-name="Pfad 180" d="M200.682,228.176s.009-2.9,0-3.344c-.015-.8,2.053-3.176,2.686-3.88a2.685,2.685,0,0,1,1.784-1.049c.634-.07.912.1.909.627s-2.387,3.818-2.387,3.818" transform="translate(-188.489 -208.983)" fill="none" stroke="#fff" stroke-miterlimit="10" stroke-width="1"/>
    <path id="Pfad_181" data-name="Pfad 181" d="M207.086,212.1a2.355,2.355,0,0,0-1.232,2.044l-.03,5.11a1.091,1.091,0,0,0-.674-.08,2.685,2.685,0,0,0-1.784,1.049,16.633,16.633,0,0,0-2.631,3.606l-.064.06-.006,3.558h4.8s2.539-5.08,2.662-5.39a7.453,7.453,0,0,0,.226-1.615v-7.851C208.353,212.237,207.635,211.777,207.086,212.1Z" transform="translate(-188.488 -208.249)" fill="none" stroke="#fff" stroke-miterlimit="10" stroke-width="1"/>
    <path id="Pfad_182" data-name="Pfad 182" d="M206.749,231.7v-2.459a.214.214,0,0,0-.211-.216h-6.951a.215.215,0,0,0-.212.216V231.7" transform="translate(-188.368 -209.833)" fill="none" stroke="#fff" stroke-miterlimit="10" stroke-width="1.5"/>
    <path id="Pfad_183" data-name="Pfad 183" d="M200.682,228.176s.009-2.9,0-3.344c-.015-.8,2.053-3.176,2.686-3.88a2.685,2.685,0,0,1,1.784-1.049c.634-.07.912.1.909.627s-2.387,3.818-2.387,3.818" transform="translate(-188.489 -208.983)" fill="none" stroke="#fff" stroke-miterlimit="10" stroke-width="1"/>
    <path id="Pfad_184" data-name="Pfad 184" d="M203.519,220.676a4.619,4.619,0,0,1,.552-.526v-3.236a2.179,2.179,0,0,0-1.408.912,2.986,2.986,0,0,0-.352,1.27v2.749l.143.074C202.886,221.39,203.293,220.926,203.519,220.676Z" transform="translate(-188.641 -208.707)" fill="none" stroke="#fff" stroke-miterlimit="10" stroke-width="1"/>
    <line id="Linie_77" data-name="Linie 77" x2="0.006" y2="3.559" transform="translate(7.682 15.634)" fill="none" stroke="#fff" stroke-miterlimit="10" stroke-width="1"/>
    <path id="Pfad_185" data-name="Pfad 185" d="M190.128,227.442s-2.539-5.08-2.662-5.39a7.453,7.453,0,0,1-.226-1.615v-7.851c0-.349.718-.809,1.267-.491.576.336,1.266,1.056,1.232,1.412l.034,5.875" transform="translate(-187.24 -208.249)" fill="none" stroke="#fff" stroke-miterlimit="10" stroke-width="1"/>
    <path id="Pfad_186" data-name="Pfad 186" d="M188.876,231.7v-2.459a.214.214,0,0,1,.212-.216h6.951a.214.214,0,0,1,.212.216V231.7" transform="translate(-187.392 -209.833)" fill="none" stroke="#fff" stroke-miterlimit="10" stroke-width="1.5"/>
    <circle id="Ellipse_46" data-name="Ellipse 46" cx="0.228" cy="0.228" r="0.228" transform="translate(6.262 20.781)" fill="none" stroke="#fff" stroke-miterlimit="10" stroke-width="1"/>
    <path id="Pfad_187" data-name="Pfad 187" d="M195.147,228.176s-.008-2.9,0-3.344c.016-.8-2.052-3.176-2.685-3.88a2.687,2.687,0,0,0-1.784-1.049c-.634-.07-.912.1-.91.627s2.387,3.818,2.387,3.818" transform="translate(-187.475 -208.983)" fill="none" stroke="#fff" stroke-miterlimit="10" stroke-width="1"/>
    <path id="Pfad_188" data-name="Pfad 188" d="M188.507,212.1a2.358,2.358,0,0,1,1.232,2.044l.03,5.11a1.091,1.091,0,0,1,.674-.08,2.687,2.687,0,0,1,1.784,1.049,16.633,16.633,0,0,1,2.631,3.606l.064.06.006,3.558h-4.8s-2.539-5.08-2.662-5.39a7.453,7.453,0,0,1-.226-1.615v-7.851C187.24,212.237,187.958,211.777,188.507,212.1Z" transform="translate(-187.24 -208.249)" fill="none" stroke="#fff" stroke-miterlimit="10" stroke-width="1"/>
    <path id="Pfad_189" data-name="Pfad 189" d="M188.876,231.7v-2.459a.214.214,0,0,1,.212-.216h6.951a.214.214,0,0,1,.212.216V231.7" transform="translate(-187.392 -209.833)" fill="none" stroke="#fff" stroke-miterlimit="10" stroke-width="1.5"/>
    <path id="Pfad_190" data-name="Pfad 190" d="M195.147,228.176s-.008-2.9,0-3.344c.016-.8-2.052-3.176-2.685-3.88a2.687,2.687,0,0,0-1.784-1.049c-.634-.07-.912.1-.91.627s2.387,3.818,2.387,3.818" transform="translate(-187.475 -208.983)" fill="none" stroke="#fff" stroke-miterlimit="10" stroke-width="1"/>
    <path id="Pfad_191" data-name="Pfad 191" d="M190.022,219.415l-.033-5.11a1.986,1.986,0,0,0-.052-.526l.016,0a2.479,2.479,0,0,1,1.576.913,2.741,2.741,0,0,1,.395,1.27v3.917" transform="translate(-187.491 -208.415)" fill="none" stroke="#fff" stroke-miterlimit="10" stroke-width="1"/>
    <path id="Pfad_192" data-name="Pfad 192" d="M192.681,220.676a4.618,4.618,0,0,0-.552-.526v-3.236a2.179,2.179,0,0,1,1.408.912,2.986,2.986,0,0,1,.352,1.27v2.749l-.143.074C193.315,221.39,192.907,220.926,192.681,220.676Z" transform="translate(-187.694 -208.707)" fill="none" stroke="#fff" stroke-miterlimit="10" stroke-width="1"/>
    <path id="Pfad_193" data-name="Pfad 193" d="M190.128,227.442s-2.539-5.08-2.662-5.39a7.453,7.453,0,0,1-.226-1.615v-7.851c0-.349.718-.809,1.267-.491.576.336,1.266,1.056,1.232,1.412l.034,5.875" transform="translate(-187.24 -208.249)" fill="none" stroke="#fff" stroke-miterlimit="10" stroke-width="1"/>
    <path id="Pfad_194" data-name="Pfad 194" d="M188.876,231.7v-2.459a.214.214,0,0,1,.212-.216h6.951a.214.214,0,0,1,.212.216V231.7" transform="translate(-187.392 -209.833)" fill="none" stroke="#fff" stroke-miterlimit="10" stroke-width="1.5"/>
    <path id="Pfad_195" data-name="Pfad 195" d="M195.147,228.176s-.008-2.9,0-3.344c.016-.8-2.052-3.176-2.685-3.88a2.687,2.687,0,0,0-1.784-1.049c-.634-.07-.912.1-.91.627s2.387,3.818,2.387,3.818" transform="translate(-187.475 -208.983)" fill="none" stroke="#fff" stroke-miterlimit="10" stroke-width="1"/>
    <path id="Pfad_196" data-name="Pfad 196" d="M188.507,212.1a2.358,2.358,0,0,1,1.232,2.044l.03,5.11a1.091,1.091,0,0,1,.674-.08,2.687,2.687,0,0,1,1.784,1.049,16.633,16.633,0,0,1,2.631,3.606l.064.06.006,3.558h-4.8s-2.539-5.08-2.662-5.39a7.453,7.453,0,0,1-.226-1.615v-7.851C187.24,212.237,187.958,211.777,188.507,212.1Z" transform="translate(-187.24 -208.249)" fill="none" stroke="#fff" stroke-miterlimit="10" stroke-width="1"/>
    <path id="Pfad_197" data-name="Pfad 197" d="M188.876,231.7v-2.459a.214.214,0,0,1,.212-.216h6.951a.214.214,0,0,1,.212.216V231.7" transform="translate(-187.392 -209.833)" fill="none" stroke="#fff" stroke-miterlimit="10" stroke-width="1.5"/>
    <path id="Pfad_198" data-name="Pfad 198" d="M195.147,228.176s-.008-2.9,0-3.344c.016-.8-2.052-3.176-2.685-3.88a2.687,2.687,0,0,0-1.784-1.049c-.634-.07-.912.1-.91.627s2.387,3.818,2.387,3.818" transform="translate(-187.475 -208.983)" fill="none" stroke="#fff" stroke-miterlimit="10" stroke-width="1"/>
    <path id="Pfad_199" data-name="Pfad 199" d="M192.681,220.676a4.618,4.618,0,0,0-.552-.526v-3.236a2.179,2.179,0,0,1,1.408.912,2.986,2.986,0,0,1,.352,1.27v2.749l-.143.074C193.315,221.39,192.907,220.926,192.681,220.676Z" transform="translate(-187.694 -208.707)" fill="none" stroke="#fff" stroke-miterlimit="10" stroke-width="1"/>
  </g>
</svg>
