<svg xmlns="http://www.w3.org/2000/svg" width="24.233" height="20.803" viewBox="0 0 24.233 20.803">
  <g id="Icon_LV" data-name="Icon LV" transform="translate(0.5 0.75)">
    <path id="Pfad_158" data-name="Pfad 158" d="M152.094,187.813s-9.2-6.691-10.7-10.678c-1.7-4.5,1.007-8.411,4.915-8.326a6.039,6.039,0,0,1,5.79,4.246" transform="translate(-140.366 -168.808)" fill="none" stroke="#fff" stroke-linecap="round" stroke-linejoin="round" stroke-width="1.5"/>
    <path id="Pfad_159" data-name="Pfad 159" d="M152.094,187.813s9.2-6.691,10.705-10.678c1.7-4.5-1.008-8.411-4.916-8.326a6.039,6.039,0,0,0-5.789,4.246" transform="translate(-140.366 -168.808)" fill="none" stroke="#fff" stroke-linecap="round" stroke-linejoin="round" stroke-width="1.5"/>
    <path id="Pfad_160" data-name="Pfad 160" d="M140.366,180.095h8.575l1.874-4.3,1.2,7.567,2.2-5.788,1.065,2.716h8.275" transform="translate(-140.366 -169.492)" fill="none" stroke="#fff" stroke-linecap="round" stroke-linejoin="round" stroke-width="1"/>
  </g>
</svg>
