<svg xmlns="http://www.w3.org/2000/svg" width="142" height="142" viewBox="0 0 142 142">
  <g id="Gruppe_97" data-name="Gruppe 97" transform="translate(-134.5 -126.5)">
    <circle id="Ellipse_16" data-name="Ellipse 16" cx="71" cy="71" r="71" transform="translate(134.5 126.5)" fill="#fff"/>
    <g id="Gruppe_73" data-name="Gruppe 73" transform="translate(173.616 147.51)">
      <g id="Gruppe_13" data-name="Gruppe 13" transform="translate(7.443 3.824)">
        <path id="Pfad_2" data-name="Pfad 2" d="M18.994,3.039c8.06,0,17.787,4.709,18.849,20.838S28.164,52.218,18.994,52.391-1.337,41.044-.144,23.877,10.934,3.039,18.994,3.039Z" transform="translate(3.556 -3.039)" fill="#2B71A3"/>
        <path id="Pfad_3" data-name="Pfad 3" d="M2.435,0C3.856,0,5.276,1.611,5.276,5.02s-.836,6.54-3.41,6.561S.131,8.43.131,5.02,1.015,0,2.435,0Z" transform="translate(39.559 18.608) rotate(7)" fill="#2B71A3"/>
        <path id="Pfad_4" data-name="Pfad 4" d="M2.435,11.581c1.421,0,2.841-1.611,2.841-5.02S4.44.021,1.866,0,.131,3.151.131,6.561,1.015,11.581,2.435,11.581Z" transform="translate(6.648 30.103) rotate(173)" fill="#2B71A3"/>
      </g>
      <path id="Rechteck_27" data-name="Rechteck 27" d="M2,0H9.222a2,2,0,0,1,2,2v.611a3,3,0,0,1-3,3H3a3,3,0,0,1-3-3V2A2,2,0,0,1,2,0Z" transform="translate(25.25 55.898)" fill="#2B71A3"/>
      <g id="Gruppe_12" data-name="Gruppe 12" transform="translate(0 57.584)">
        <path id="Differenzmenge_1" data-name="Differenzmenge 1" d="M52.2,30.578H10.57a13.043,13.043,0,0,1-7.629-2.192A6.547,6.547,0,0,1,0,23.094v-.935a29.289,29.289,0,0,1,1.025-7.928A20.522,20.522,0,0,1,4.231,7.544,17.76,17.76,0,0,1,9.813,2.625,22.787,22.787,0,0,1,17.966,0L31.385,23.375,44.794.016c6.928.848,11.688,3.42,14.554,7.863,2.334,3.618,3.421,8.453,3.421,15.216a6.546,6.546,0,0,1-2.785,5.292A12.913,12.913,0,0,1,52.2,30.578Z" transform="translate(0 0)" fill="#2B71A3"/>
        <path id="Pfad_6" data-name="Pfad 6" d="M-1,0H6.2L5.174,23.667H.029Z" transform="translate(28.783 1.766)" fill="#2B71A3"/>
      </g>
      <path id="Pfad_7" data-name="Pfad 7" d="M11.033.112A15.318,15.318,0,0,0,.332,6.7c-1.879,2.938,4.689-1.685,8.1-2.341s7.547-.369,7.831-1.547S18.43,3.841,18.43,3.841A6.875,6.875,0,0,0,11.033.112Z" transform="matrix(0.998, -0.07, 0.07, 0.998, 14.649, 3.888)" fill="#2B71A3"/>
      <path id="Pfad_8" data-name="Pfad 8" d="M1148.24,2283.323" transform="translate(-1108.007 -2283.323)" fill="none" stroke="#707070" stroke-width="1"/>
      <rect id="Rechteck_28" data-name="Rechteck 28" width="11.222" height="2.806" transform="translate(42.084 75.537)" fill="#fff"/>
    </g>
  </g>
</svg>