<svg xmlns="http://www.w3.org/2000/svg" width="25.67" height="19.186" viewBox="0 0 25.67 19.186">
  <g id="Icon_Kranken" data-name="Icon Kranken" transform="translate(0.75 0.75)">
    <path id="Rechteck_158" data-name="Rechteck 158" d="M1.573,0H22.6A1.573,1.573,0,0,1,24.17,1.573v14.54A1.573,1.573,0,0,1,22.6,17.686H1.572A1.572,1.572,0,0,1,0,16.114V1.573A1.573,1.573,0,0,1,1.573,0Z" fill="none" stroke="#fff" stroke-width="1.5"/>
    <path id="Pfad_153" data-name="Pfad 153" d="M205.14,219.044v-2.825a.189.189,0,0,0-.189-.189h-3.086v-3.087a.19.19,0,0,0-.19-.189H198.85a.189.189,0,0,0-.189.189v3.087h-3.087a.19.19,0,0,0-.189.189v2.825a.189.189,0,0,0,.189.189h3.087v3.087a.188.188,0,0,0,.189.189h2.825a.189.189,0,0,0,.19-.189v-3.087h3.086A.188.188,0,0,0,205.14,219.044Z" transform="translate(-188.178 -208.789)" fill="none" stroke="#fff" stroke-width="1"/>
  </g>
</svg>
