<svg xmlns="http://www.w3.org/2000/svg" width="19.168" height="23.372" viewBox="0 0 19.168 23.372">
  <g id="Icon_Allgemein" data-name="Icon Allgemein" transform="translate(0.807 0.877)">
    <path id="Pfad_149" data-name="Pfad 149" d="M240.754,170.839a17.574,17.574,0,0,1-8.12-2.643,23.143,23.143,0,0,1-8.517,2.643,20.606,20.606,0,0,0,0,8.681c1.672,7.636,7.062,9.944,8.205,10.354l.112.034.114-.034c1.143-.41,6.533-2.718,8.206-10.354A20.626,20.626,0,0,0,240.754,170.839Z" transform="translate(-223.659 -168.196)" fill="none" stroke="#fff" stroke-width="1.5"/>
    <g id="Gruppe_352" data-name="Gruppe 352" transform="translate(-223.659 -168.196)">
      <g id="Gruppe_1" data-name="Gruppe 1">
        <path id="Pfad_1" data-name="Pfad 1" d="M232.114,174.967c.193-.39.508-.39.7,0l.408.827a1.688,1.688,0,0,0,1.132.822l.913.133c.43.062.527.362.216.665l-.66.644a1.687,1.687,0,0,0-.433,1.33l.156.909c.074.428-.181.613-.566.411l-.816-.429a1.691,1.691,0,0,0-1.4,0l-.816.429c-.387.2-.64.017-.567-.411l.156-.909a1.686,1.686,0,0,0-.432-1.33l-.66-.644c-.311-.3-.214-.6.216-.665l.913-.133a1.688,1.688,0,0,0,1.132-.822Z" fill="#fff"/>
      </g>
    </g>
  </g>
</svg>
