<svg xmlns="http://www.w3.org/2000/svg" width="35" height="35" viewBox="0 0 35 35">
  <g id="Gruppe_324" data-name="Gruppe 324" transform="translate(-283 -157)">
    <rect id="Rechteck_96" data-name="Rechteck 96" width="35" height="35" rx="10" transform="translate(283 157)" fill="#f2f2f2"/>
    <g id="Gruppe_319" data-name="Gruppe 319" transform="translate(-827 -7171)">
      <g id="Gruppe_318" data-name="Gruppe 318" transform="translate(1117 7338.089)">
        <g id="Pfad_131" data-name="Pfad 131" transform="translate(0 0)" fill="none">
          <path d="M2.249,0H17.991a2.074,2.074,0,0,1,2.249,1.834V17.769l-4.323-3.093H2.249A2.074,2.074,0,0,1,0,12.841V1.834A2.074,2.074,0,0,1,2.249,0Z" stroke="none"/>
          <path d="M 2.248819351196289 1.500001907348633 C 1.749580383300781 1.500001907348633 1.5 1.770601272583008 1.5 1.834461212158203 L 1.5 12.84125137329102 C 1.5 12.90512084960938 1.749580383300781 13.17572212219238 2.248819351196289 13.17572212219238 L 16.39764022827148 13.17572212219238 L 18.7393798828125 14.85130977630615 L 18.7393798828125 1.834461212158203 C 18.7393798828125 1.770601272583008 18.48979949951172 1.500001907348633 17.99056053161621 1.500001907348633 L 2.248819351196289 1.500001907348633 M 2.248819351196289 1.9073486328125e-06 L 17.99056053161621 1.9073486328125e-06 C 19.2325496673584 1.9073486328125e-06 20.2393798828125 0.8213214874267578 20.2393798828125 1.834461212158203 L 20.2393798828125 12.84125137329102 C 20.2393798828125 13.85440158843994 20.2393798828125 17.76904106140137 20.2393798828125 17.76904106140137 L 15.916259765625 14.67572116851807 L 2.248819351196289 14.67572116851807 C 1.006830215454102 14.67572116851807 0 13.85440158843994 0 12.84125137329102 L 0 1.834461212158203 C 0 0.8213214874267578 1.006830215454102 1.9073486328125e-06 2.248819351196289 1.9073486328125e-06 Z" stroke="none" fill="#2c262d"/>
        </g>
      </g>
      <text id="ABC" transform="translate(1119.62 7348)" fill="#2c262d" font-size="8" font-family="Oscine-Bold, Oscine" font-weight="700"><tspan x="0" y="0">ABC</tspan></text>
    </g>
  </g>
</svg>
