<svg xmlns="http://www.w3.org/2000/svg" width="59.2" height="81.099" viewBox="0 0 59.2 81.099">
  <g id="sekretär_rgb" transform="translate(-19.1 -19)">
    <g id="Gruppe_93" data-name="Gruppe 93" transform="translate(19.7 19.6)">
      <path id="Pfad_15" data-name="Pfad 15" d="M37.355,46.114A4.679,4.679,0,0,1,32.7,50.767H24.353A4.679,4.679,0,0,1,19.7,46.114V24.253A4.679,4.679,0,0,1,24.353,19.6H45.641a4.679,4.679,0,0,1,4.653,4.653v8.413a4.679,4.679,0,0,1-4.653,4.653H42.071a4.679,4.679,0,0,0-4.653,4.653v4.143Z" transform="translate(-19.7 -19.6)" fill="none" stroke="#d60b51" stroke-width="1.2"/>
    </g>
    <g id="Gruppe_94" data-name="Gruppe 94" transform="translate(46.469 47.007)">
      <path id="Pfad_16" data-name="Pfad 16" d="M92.867,88.477a4.679,4.679,0,0,1-4.653,4.653H66.353A4.679,4.679,0,0,1,61.7,88.477V80.128a4.679,4.679,0,0,1,4.653-4.653h4.207a4.679,4.679,0,0,0,4.653-4.653V67.253A4.679,4.679,0,0,1,79.865,62.6h8.413a4.679,4.679,0,0,1,4.653,4.653V88.477Z" transform="translate(-61.7 -62.6)" fill="none" stroke="#d60b51" stroke-width="1.2"/>
    </g>
    <rect id="Rechteck_64" data-name="Rechteck 64" width="11.026" height="11.026" transform="translate(42.964 43.246)" fill="none" stroke="#2c262d" stroke-width="1.2"/>
    <g id="Gruppe_95" data-name="Gruppe 95" transform="translate(20.146 83.591)">
      <path id="Pfad_17" data-name="Pfad 17" d="M26.264,127.505v.319H25.116v-.382c0-1.466-.7-2.486-1.785-2.486a1.907,1.907,0,0,0-1.721,2.1,2.264,2.264,0,0,0,.892,1.976l2.486,1.53a3.307,3.307,0,0,1,1.466,2.868,2.948,2.948,0,0,1-3,3.123c-1.785,0-3.059-1.4-3.059-3.505v-.319h1.147v.382c0,1.466.765,2.486,1.912,2.486a1.919,1.919,0,0,0,1.848-2.1,2.121,2.121,0,0,0-.956-1.912l-2.486-1.53a3.339,3.339,0,0,1-1.4-2.868A2.906,2.906,0,0,1,23.332,124C25.053,124,26.264,125.4,26.264,127.505Z" transform="translate(-20.4 -120.176)" fill="#2c262d"/>
      <path id="Pfad_18" data-name="Pfad 18" d="M39.646,133.214c0,2.1-1.275,3.505-3.123,3.505s-3.123-1.4-3.123-3.505v-5.609c0-2.1,1.275-3.506,3.123-3.506s3.123,1.4,3.123,3.506v3.314H34.484v2.486c0,1.466.829,2.422,2.04,2.422,1.147,0,1.976-.956,1.976-2.422v-.637h1.147Zm-5.163-5.8v2.422H38.5v-2.422c0-1.466-.829-2.422-1.976-2.422A2.2,2.2,0,0,0,34.484,127.414Z" transform="translate(-25.114 -120.212)" fill="#2c262d"/>
      <path id="Pfad_19" data-name="Pfad 19" d="M47.1,118h1.147v16.317H47.1Zm1.338,9.943,3.314-5.927h1.275l-3.378,5.927,3.633,6.374H52.008Z" transform="translate(-30.082 -118)" fill="#2c262d"/>
      <path id="Pfad_20" data-name="Pfad 20" d="M60.747,136.492H59.6V124.127h1.147v1.466A3.36,3.36,0,0,1,63.488,124v1.02a2.732,2.732,0,0,0-2.741,2.932v8.541Z" transform="translate(-34.615 -120.176)" fill="#2c262d"/>
      <path id="Pfad_21" data-name="Pfad 21" d="M74.446,133.214c0,2.1-1.275,3.505-3.123,3.505s-3.123-1.4-3.123-3.505v-5.609c0-2.1,1.275-3.506,3.123-3.506s3.123,1.4,3.123,3.506v3.314h-5.1v2.486c0,1.466.829,2.422,2.04,2.422,1.147,0,1.976-.956,1.976-2.422v-.637h1.084Zm-5.1-5.8v2.422h4.015v-2.422c0-1.466-.829-2.422-1.976-2.422A2.2,2.2,0,0,0,69.347,127.414Z" transform="translate(-37.734 -120.212)" fill="#2c262d"/>
      <path id="Pfad_22" data-name="Pfad 22" d="M85.071,135.042h-.7a2.308,2.308,0,0,1-2.422-2.422V123.7H80.1v-1.02h1.848V120H83.1v2.741h1.976v1.02H83.1v8.923a1.3,1.3,0,0,0,1.275,1.466h.7Z" transform="translate(-42.049 -118.725)" fill="#2c262d"/>
      <path id="Pfad_23" data-name="Pfad 23" d="M90.764,126.43v-.7c0-2.1,1.275-3.506,3.059-3.506s3.059,1.4,3.059,3.506v8.987H95.735v-1.147a2.988,2.988,0,0,1-2.422,1.275c-1.53,0-2.613-1.147-2.613-3.059v-.892c0-1.912,1.338-2.932,3.123-3.059l1.912-.191v-2.1c0-1.466-.765-2.422-1.912-2.422s-1.912.956-1.912,2.422v.829H90.764Zm4.908,5.226v-2.868l-1.912.191a1.906,1.906,0,0,0-1.976,1.976v.956a1.876,1.876,0,0,0,1.912,2.04A2.2,2.2,0,0,0,95.671,131.656ZM91.911,119.1h.956v1.593h-.956Zm2.8,0h.956v1.593h-.956Z" transform="translate(-45.893 -118.399)" fill="#2c262d"/>
      <path id="Pfad_24" data-name="Pfad 24" d="M105.647,136.492H104.5V124.127h1.147v1.466A3.36,3.36,0,0,1,108.388,124v1.02a2.732,2.732,0,0,0-2.741,2.932Z" transform="translate(-50.898 -120.176)" fill="#2c262d"/>
    </g>
  </g>
</svg>
