
<svg width="216px" height="216px" viewBox="0 0 600 600" version="1.1" xmlns="http://www.w3.org/2000/svg" xmlns:xlink="http://www.w3.org/1999/xlink">
    <!-- Generator: Sketch Beta 60 (88035) - https://sketch.com -->
    <title>highlights-SEKRETAER</title>
    <desc>Created with Sketch Beta.</desc>
    <defs>
        <polygon id="path-1" points="0 342 423 342 423 0 0 0"></polygon>
    </defs>
    <g id="highlights-SEKRETAER" stroke="none" stroke-width="1" fill="none" fill-rule="evenodd">
        <g id="Group-88-Copy-2" transform="translate(87.000000, 129.000000)">
            <g id="Group-87" transform="translate(2.000000, 0.000000)">
                <path d="M334.184077,13.5820382 C333.854043,13.5820382 333.594189,13.6182196 333.376063,13.6924867 L333.376063,17.94285 L333.854043,17.94285 C335.951843,17.94285 336.759857,17.3506175 336.759857,15.5034614 C336.759857,13.8029352 335.361956,13.5820382 334.184077,13.5820382 L334.184077,13.5820382 Z M337.057646,25.8113541 L333.486074,20.0470845 L333.376063,20.0470845 L333.376063,25.8113541 L330.210395,25.8113541 L330.210395,11.9195977 C331.388274,11.3273651 332.788072,10.9579339 334.332023,10.9579339 C338.601597,10.9579339 340.037433,13.5077711 340.037433,15.42729 C340.037433,17.6457816 338.711608,19.0492394 336.83383,19.6776533 L341.067366,25.8113541 L337.057646,25.8113541 Z M335.031922,8.4442782 C329.326511,8.4442782 324.872953,13.1745212 324.872953,18.7921609 C324.872953,24.4078963 329.326511,29.0638723 335.031922,29.0638723 C340.735436,29.0638723 345.188994,24.4078963 345.188994,18.7921609 C345.188994,13.1745212 340.735436,8.4442782 335.031922,8.4442782 L335.031922,8.4442782 Z M335.031922,31.9450549 C327.818598,31.9450549 321.929204,26.1084225 321.929204,18.7921609 C321.929204,11.5120808 327.818598,5.63736264 335.031922,5.63736264 C342.20731,5.63736264 348.132743,11.5120808 348.132743,18.7921609 C348.132743,26.1084225 342.20731,31.9450549 335.031922,31.9450549 L335.031922,31.9450549 Z" id="Fill-45" fill="#1D1D1B"></path>
                <polygon id="Fill-47" fill="#FEFEFE" points="220.598063 11.2747253 294.606919 25.2629252 318.185841 59.963008 299.557201 159.725275 196.526549 140.240163"></polygon>
                <polygon id="Fill-49" fill="#1D1D1B" points="303.411309 169.120879 185.29646 146.995307 213.104175 0 295.882591 15.5037911 293.187471 29.7849269 224.643712 16.8722675 202.226236 135.365127 291.871773 152.25609 309.508128 58.9809603 323.800885 61.6823926"></polygon>
                <polyline id="Fill-51" fill="#1D1D1B" points="295.811114 15.032967 288.238938 55.1920269 323.800885 62.010989"></polyline>
                <polygon id="Fill-53" fill="#FEFEFE" points="286.367257 57.0500152 293.876114 16.9120879 294.928264 17.1118527 295.589043 18.3733304 288.65541 55.4722432 321.24294 61.7722331 321.929204 62.8524427 321.74171 63.8901099"></polygon>
                <polygon id="Fill-55" fill="#009EE2" points="159.09292 56.4925257 234.227956 56.3736264 263.748228 86.0946716 263.90708 187.751668 159.292887 187.912088"></polygon>
                <polygon id="Fill-57" fill="#1D1D1B" points="269.522124 197.119975 149.844626 197.307692 149.734513 47.1037926 233.616075 46.978022 233.625407 61.5599043 164.161134 61.6105879 164.250717 182.680758 255.09177 182.630074 255.018984 87.3297395 269.501594 87.3222308"></polygon>
                <polyline id="Fill-59" fill="#1D1D1B" points="233.984203 45.0989011 233.960177 86.4223064 269.522124 86.4395604"></polyline>
                <polygon id="Fill-61" fill="#FEFEFE" points="233.960177 88.2999785 233.984779 46.978022 235.089999 46.978022 236.015431 48.1039303 235.990828 86.2875577 270.489191 86.3118714 271.393805 87.2601031 271.393805 88.3186813"></polygon>
                <polygon id="Fill-63" fill="#FEFEFE" points="229.588553 133.897756 193.844155 112.747253 121.659292 131.916541 141.516672 208.582418 248.933628 208.582418"></polygon>
                <polygon id="Fill-65" fill="#1D1D1B" points="127.906399 135.089995 194.654867 117.445289 191.007066 103.351648 110.429204 124.733035 132.099147 208.582418 146.897952 208.582418"></polygon>
                <polygon id="Fill-67" fill="#1D1D1B" points="236.78721 133.417582 222.730088 137.086396 241.4417 208.582418 256.420354 208.582418"></polygon>
                <polygon id="Fill-69" fill="#1D1D1B" points="190.911504 103.351648 235.831858 133.570421 201.115759 142.813187"></polygon>
                <polyline id="Fill-71" fill="#1D1D1B" points="190.911504 103.351648 201.115759 142.813187 235.831858 133.570421"></polyline>
                <polygon id="Fill-73" fill="#FEFEFE" points="201.512101 144.692308 190.911504 105.511341 191.983857 105.230769 193.167796 106.068816 202.962709 142.282695 236.307779 133.805038 237.427414 134.48171 237.70354 135.484799"></polygon>
                <line x1="104.814159" y1="209.521978" x2="312.570796" y2="209.521978" id="Fill-75" fill="#009EE2"></line>
                <mask id="mask-2" fill="white">
                    <use xlink:href="#path-1"></use>
                </mask>
                <g id="Clip-78"></g>
                <polygon id="Fill-77" fill="#009EE2" mask="url(#mask-2)" points="104.814159 210.461538 312.570796 210.461538 312.570796 208.582418 104.814159 208.582418"></polygon>
                <path d="M2.11903626,278.409433 C5.87516867,280.681123 11.3677857,282.573267 17.1473164,282.573267 C25.7209746,282.573267 30.7316515,278.126635 30.7316515,271.691111 C30.7316515,265.728158 27.2643081,262.321554 18.4956236,259.009836 C7.90044227,255.318573 1.34830714,249.921216 1.34830714,240.931204 C1.34830714,230.997911 9.72881426,223.615385 22.3511444,223.615385 C28.9970422,223.615385 33.814568,225.129844 36.7043334,226.739191 L34.392146,233.459373 C32.2712345,232.322598 27.9375241,230.428593 22.0604801,230.428593 C13.1980329,230.428593 9.82445218,235.632456 9.82445218,239.987923 C9.82445218,245.950876 13.7756109,248.883049 22.7355713,252.289653 C33.7170548,256.453487 39.3053097,261.65921 39.3053097,271.028767 C39.3053097,280.870895 31.8868076,289.384615 16.5697384,289.384615 C10.3063923,289.384615 3.4673434,287.591078 0,285.319389 L2.11903626,278.409433 Z" id="Fill-79" fill="#575756" mask="url(#mask-2)"></path>
                <polygon id="Fill-80" fill="#575756" mask="url(#mask-2)" points="87.0269623 259.429892 62.4425342 259.429892 62.4425342 282.464533 89.840708 282.464533 89.840708 289.384615 54.2787611 289.384615 54.2787611 225.494505 88.4347662 225.494505 88.4347662 232.416488 62.4425342 232.416488 62.4425342 252.604813 87.0269623 252.604813"></polygon>
                <path d="M106.685841,225.494505 L114.898297,225.494505 L114.898297,256.304264 L115.179224,256.304264 C116.877901,253.837963 118.576578,251.56357 120.181612,249.477285 L139.621815,225.494505 L149.813875,225.494505 L126.787161,252.606713 L151.606195,289.384615 L141.886093,289.384615 L120.938244,258.008634 L114.898297,265.02562 L114.898297,289.384615 L106.685841,289.384615 L106.685841,225.494505 Z" id="Fill-81" fill="#575756" mask="url(#mask-2)"></path>
                <path d="M170.998344,255.69868 L179.344679,255.69868 C188.067009,255.69868 193.60083,250.898529 193.60083,243.653978 C193.60083,235.468258 187.692876,231.890306 179.063614,231.797887 C175.124977,231.797887 172.310602,232.175109 170.998344,232.550445 L170.998344,255.69868 Z M162.836283,226.811011 C166.962917,225.964147 172.874594,225.494505 178.501483,225.494505 C187.221952,225.494505 192.850702,227.093927 196.7912,230.668107 C199.977847,233.491614 201.76103,237.820238 201.76103,242.712809 C201.76103,251.089026 196.508274,256.63985 189.84833,258.897524 L189.84833,259.178554 C194.725091,260.872282 197.634396,265.389517 199.134652,271.975815 C201.198899,280.821673 202.699155,286.936444 204.013274,289.384615 L195.570148,289.384615 C194.538955,287.594696 193.131768,282.138179 191.348585,274.235375 C189.474197,265.481936 186.097691,262.190673 178.687619,261.907756 L170.998344,261.907756 L170.998344,289.384615 L162.836283,289.384615 L162.836283,226.811011 Z" id="Fill-82" fill="#575756" mask="url(#mask-2)"></path>
                <polygon id="Fill-83" fill="#575756" mask="url(#mask-2)" points="251.734927 259.429892 227.150499 259.429892 227.150499 282.464533 254.548673 282.464533 254.548673 289.384615 218.986726 289.384615 218.986726 225.494505 253.142731 225.494505 253.142731 232.416488 227.150499 232.416488 227.150499 252.604813 251.734927 252.604813"></polygon>
                <polygon id="Fill-84" fill="#575756" mask="url(#mask-2)" points="285.003266 232.509592 265.778761 232.509592 265.778761 225.494505 312.570796 225.494505 312.570796 232.509592 293.255101 232.509592 293.255101 289.384615 285.003266 289.384615"></polygon>
                <path d="M343.142054,217.037612 C343.142054,214.408524 345.094941,212.340659 347.695102,212.340659 C350.297108,212.340659 352.155946,214.408524 352.155946,217.037612 C352.155946,219.668583 350.389312,221.830613 347.695102,221.830613 C344.906844,221.830613 343.142054,219.668583 343.142054,217.037612 L343.142054,217.037612 Z M347.973559,263.074902 L341.840129,244.848316 C340.447844,240.714471 339.518425,236.955402 338.589006,233.290498 L338.402753,233.290498 C337.473334,237.05145 336.45171,240.902801 335.243834,244.754151 L329.112248,263.074902 L347.973559,263.074902 Z M325.857436,217.037612 C325.857436,214.408524 327.904371,212.340659 330.504533,212.340659 C333.108382,212.340659 334.965377,214.408524 334.965377,217.037612 C334.965377,219.668583 333.200586,221.830613 330.412328,221.830613 C327.716275,221.830613 325.857436,219.668583 325.857436,217.037612 L325.857436,217.037612 Z M327.437818,269.464942 L320.933726,289.384615 L312.570796,289.384615 L333.849705,226.058623 L343.606764,226.058623 L364.977876,289.384615 L356.336489,289.384615 L349.646145,269.464942 L327.437818,269.464942 Z" id="Fill-85" fill="#575756" mask="url(#mask-2)"></path>
                <path d="M388.483548,254.707083 L397.210499,254.707083 C406.330692,254.707083 412.115889,249.766892 412.115889,242.308506 C412.115889,233.884341 405.93745,230.202305 396.917458,230.104218 C392.797868,230.104218 389.858005,230.492793 388.483548,230.879483 L388.483548,254.707083 Z M379.951327,224.971626 C384.267538,224.096388 390.444087,223.615385 396.327595,223.615385 C405.451569,223.615385 411.331295,225.262115 415.448994,228.942264 C418.78399,231.849035 420.648109,236.302563 420.648109,241.34084 C420.648109,249.96118 415.155953,255.676635 408.19292,258.000543 L408.19292,258.291031 C413.291834,260.033962 416.331899,264.68555 417.902977,271.466758 C420.058246,280.569988 421.625543,286.86642 423,289.384615 L414.174739,289.384615 C413.098994,287.543598 411.624336,281.92623 409.763998,273.790666 C407.801569,264.781751 404.271842,261.39209 396.524216,261.099715 L388.483548,261.099715 L388.483548,289.384615 L379.951327,289.384615 L379.951327,224.971626 Z" id="Fill-86" fill="#575756" mask="url(#mask-2)"></path>
            </g>
        </g>
    </g>
</svg>