<svg xmlns="http://www.w3.org/2000/svg" width="33.183" height="33.183" viewBox="0 0 33.183 33.183">
  <g id="sekretär_Bildmarke_klein_negativ" transform="translate(-5.05 -4.85)">
    <g id="Gruppe_74" data-name="Gruppe 74" transform="translate(5.8 5.6)">
      <path id="Pfad_12" data-name="Pfad 12" d="M15.393,20.116a2.532,2.532,0,0,1-2.525,2.525H8.325A2.532,2.532,0,0,1,5.8,20.116V8.125A2.532,2.532,0,0,1,8.325,5.6H19.938a2.532,2.532,0,0,1,2.525,2.525v4.544a2.532,2.532,0,0,1-2.525,2.525h-2.02a2.532,2.532,0,0,0-2.525,2.525Z" transform="translate(-5.8 -5.6)" fill="none" stroke="#fff" stroke-width="1.5"/>
    </g>
    <g id="Gruppe_75" data-name="Gruppe 75" transform="translate(20.443 20.621)">
      <path id="Pfad_13" data-name="Pfad 13" d="M34.441,31.638a2.532,2.532,0,0,1-2.525,2.525H19.925A2.532,2.532,0,0,1,17.4,31.638V27.093a2.532,2.532,0,0,1,2.525-2.525H22.2a2.532,2.532,0,0,0,2.525-2.525v-2.02A2.532,2.532,0,0,1,27.246,17.5H31.79a2.532,2.532,0,0,1,2.525,2.525V31.638Z" transform="translate(-17.4 -17.5)" fill="none" stroke="#fff" stroke-width="1.5"/>
    </g>
    <rect id="Rechteck_60" data-name="Rechteck 60" width="6.059" height="6.059" transform="translate(18.549 18.602)" fill="none" stroke="#2c262d" stroke-width="1.5"/>
  </g>
</svg>
