<svg xmlns="http://www.w3.org/2000/svg" width="35" height="35" viewBox="0 0 35 35">
  <g id="Privacy_Policy" data-name="Privacy Policy" transform="translate(-283 -157)">
    <rect id="Rechteck_96" data-name="Rechteck 96" width="35" height="35" rx="10" transform="translate(283 157)" fill="#f2f2f2"/>
    <g id="Gruppe_323" data-name="Gruppe 323" transform="translate(-883.381 -7401)">
      <path id="Pfad_138" data-name="Pfad 138" d="M8.278.711a38.908,38.908,0,0,1,8.3,1.052s.1,6.892,0,9.834c0,4.885-8.342,8.408-8.3,8.408S.23,16.443.041,11.6V1.763A37.99,37.99,0,0,1,8.278.711Z" transform="translate(1175.55 7565.775)" fill="none" stroke="#2c262d" stroke-linejoin="round" stroke-width="1.5"/>
      <path id="Vereinigungsmenge_16" data-name="Vereinigungsmenge 16" d="M0,7.2.478,3.039A1.8,1.8,0,0,1,0,1.816a1.834,1.834,0,0,1,3.667,0,1.8,1.8,0,0,1-.5,1.251L3.74,7.2Z" transform="translate(1182.011 7571.146)" fill="#fff" stroke="#2c262d" stroke-width="1.5"/>
    </g>
  </g>
</svg>
