<svg xmlns="http://www.w3.org/2000/svg" width="35" height="35" viewBox="0 0 35 35">
  <g id="push_notifications" data-name="push notifications" transform="translate(-283 -157)">
    <rect id="Rechteck_96" data-name="Rechteck 96" width="35" height="35" rx="10" transform="translate(283 157)" fill="#f2f2f2"/>
    <g id="Gruppe_312" data-name="Gruppe 312" transform="translate(-883.726 -6979)">
      <g id="Vereinigungsmenge_12" data-name="Vereinigungsmenge 12" transform="translate(1173.617 7146)" fill="none" stroke-linejoin="round">
        <path d="M5.547,15.812l-4.711.662,1.592-3.89a8.5,8.5,0,1,1,3.12,3.228Z" stroke="none"/>
        <path d="M 9.88379955291748 15.50010013580322 C 13.74339008331299 15.50010013580322 16.88339996337891 12.35969066619873 16.88339996337891 8.499600410461426 C 16.88339996337891 4.640010356903076 13.74339008331299 1.500000596046448 9.88379955291748 1.500000596046448 C 6.023709774017334 1.500000596046448 2.883299589157104 4.640010356903076 2.883299589157104 8.499600410461426 C 2.883299589157104 9.675860404968262 3.180219650268555 10.83851051330566 3.741949558258057 11.86187076568604 C 3.959789752960205 12.2587308883667 3.986739635467529 12.73275089263916 3.815279722213745 13.1517505645752 L 3.212442874908447 14.62491035461426 L 5.337949752807617 14.32631015777588 C 5.675828456878662 14.27884006500244 6.019789695739746 14.34798145294189 6.313079833984375 14.52232074737549 C 7.389199733734131 15.16199016571045 8.623939514160156 15.50010013580322 9.88379955291748 15.50010013580322 M 9.88379955291748 17.00010108947754 C 8.299609184265137 17.00010108947754 6.816369533538818 16.56648063659668 5.546629428863525 15.8117208480835 L 0.8351996541023254 16.47360038757324 L 2.427019596099854 12.58365058898926 C 1.76168966293335 11.37156009674072 1.383299708366394 9.979780197143555 1.383299708366394 8.499600410461426 C 1.383299708366394 3.805200576782227 5.189399719238281 5.447387820822769e-07 9.88379955291748 5.447387820822769e-07 C 14.57819938659668 5.447387820822769e-07 18.38339996337891 3.805200576782227 18.38339996337891 8.499600410461426 C 18.38339996337891 13.19400024414062 14.57819938659668 17.00010108947754 9.88379955291748 17.00010108947754 Z" stroke="none" fill="#2c262d"/>
      </g>
      <g id="Pfad_127" data-name="Pfad 127" transform="translate(1181 7144)" fill="#fff">
        <path d="M 6.5 12.25 C 3.329440116882324 12.25 0.75 9.670559883117676 0.75 6.5 C 0.75 3.329440116882324 3.329440116882324 0.75 6.5 0.75 C 9.670559883117676 0.75 12.25 3.329440116882324 12.25 6.5 C 12.25 9.670559883117676 9.670559883117676 12.25 6.5 12.25 Z" stroke="none"/>
        <path d="M 6.5 1.5 C 3.742989540100098 1.5 1.5 3.742989540100098 1.5 6.5 C 1.5 9.257009506225586 3.742989540100098 11.5 6.5 11.5 C 9.257009506225586 11.5 11.5 9.257009506225586 11.5 6.5 C 11.5 3.742989540100098 9.257009506225586 1.5 6.5 1.5 M 6.5 0 C 10.0898494720459 0 13 2.910149574279785 13 6.5 C 13 10.0898494720459 10.0898494720459 13 6.5 13 C 2.910149574279785 13 0 10.0898494720459 0 6.5 C 0 2.910149574279785 2.910149574279785 0 6.5 0 Z" stroke="none" fill="#2c262d"/>
      </g>
      <text id="_1" data-name="1" transform="translate(1186 7153)" fill="#2c262d" font-size="8" font-family="Oscine-Bold, Oscine" font-weight="700"><tspan x="0" y="0">1</tspan></text>
    </g>
  </g>
</svg>
