<svg xmlns="http://www.w3.org/2000/svg" width="108.828" height="148.644" viewBox="0 0 108.828 148.644">
  <g id="sekretär_rgb" transform="translate(-18.45 -18.35)">
    <g id="Gruppe_93" data-name="Gruppe 93" transform="translate(19.7 19.6)">
      <path id="Pfad_15" data-name="Pfad 15" d="M52.066,68.207a8.577,8.577,0,0,1-8.53,8.53H28.23a8.577,8.577,0,0,1-8.53-8.53V28.13a8.577,8.577,0,0,1,8.53-8.53H67.256a8.577,8.577,0,0,1,8.53,8.53V43.553a8.577,8.577,0,0,1-8.53,8.53H60.712a8.577,8.577,0,0,0-8.53,8.53v7.595Z" transform="translate(-19.7 -19.6)" fill="none" stroke="#d5c9db" stroke-width="2.5"/>
    </g>
    <g id="Gruppe_94" data-name="Gruppe 94" transform="translate(68.774 69.843)">
      <path id="Pfad_16" data-name="Pfad 16" d="M118.837,110.039a8.577,8.577,0,0,1-8.53,8.53H70.23a8.577,8.577,0,0,1-8.53-8.53V94.732a8.577,8.577,0,0,1,8.53-8.53h7.712a8.577,8.577,0,0,0,8.53-8.53V71.13A8.577,8.577,0,0,1,95,62.6h15.423a8.577,8.577,0,0,1,8.53,8.53v38.909Z" transform="translate(-61.7 -62.6)" fill="none" stroke="#d7c6d7" stroke-width="2.5"/>
    </g>
    <rect id="Rechteck_64" data-name="Rechteck 64" width="20.214" height="20.214" transform="translate(62.348 62.949)" fill="none" stroke="#2c262d" stroke-width="2.5"/>
    <g id="Gruppe_95" data-name="Gruppe 95" transform="translate(20.518 136.732)">
      <path id="Pfad_17" data-name="Pfad 17" d="M31.15,130.426v.584h-2.1v-.7c0-2.687-1.285-4.557-3.272-4.557-1.753,0-3.155,1.636-3.155,3.856a4.15,4.15,0,0,0,1.636,3.622l4.557,2.8a6.063,6.063,0,0,1,2.687,5.258,5.4,5.4,0,0,1-5.492,5.725c-3.272,0-5.609-2.571-5.609-6.426v-.584h2.1v.7c0,2.687,1.4,4.557,3.505,4.557,1.986,0,3.388-1.636,3.388-3.856a3.888,3.888,0,0,0-1.753-3.505l-4.557-2.8a6.121,6.121,0,0,1-2.571-5.258c0-3.505,2.22-5.842,5.258-5.842C28.93,124,31.15,126.571,31.15,130.426Z" transform="translate(-20.4 -116.989)" fill="#2c262d"/>
      <path id="Pfad_18" data-name="Pfad 18" d="M44.851,140.809c0,3.856-2.337,6.426-5.725,6.426s-5.725-2.571-5.725-6.426V130.526c0-3.856,2.337-6.426,5.725-6.426s5.725,2.571,5.725,6.426V136.6H35.386v4.557c0,2.687,1.519,4.44,3.739,4.44,2.1,0,3.622-1.753,3.622-4.44v-1.168h2.1v.818Zm-9.464-10.633v4.44h7.361v-4.44c0-2.687-1.519-4.44-3.622-4.44C36.905,125.853,35.386,127.605,35.386,130.176Z" transform="translate(-18.21 -116.973)" fill="#2c262d"/>
      <path id="Pfad_19" data-name="Pfad 19" d="M47.1,118h2.1v29.912H47.1Zm2.454,18.228,6.076-10.867h2.337l-6.193,10.867,6.66,11.684H56.1Z" transform="translate(-15.903 -118)" fill="#2c262d"/>
      <path id="Pfad_20" data-name="Pfad 20" d="M61.7,146.9H59.6V124.234h2.1v2.687A6.159,6.159,0,0,1,66.727,124v1.869c-2.921,0-5.024,2.22-5.024,5.375V146.9Z" transform="translate(-13.797 -116.989)" fill="#2c262d"/>
      <path id="Pfad_21" data-name="Pfad 21" d="M79.651,140.809c0,3.856-2.337,6.426-5.725,6.426s-5.725-2.571-5.725-6.426V130.526c0-3.856,2.337-6.426,5.725-6.426s5.725,2.571,5.725,6.426V136.6H70.3v4.557c0,2.687,1.519,4.44,3.739,4.44,2.1,0,3.622-1.753,3.622-4.44v-1.168h1.986ZM70.3,130.176v4.44h7.361v-4.44c0-2.687-1.519-4.44-3.622-4.44C71.822,125.853,70.3,127.605,70.3,130.176Z" transform="translate(-12.349 -116.973)" fill="#2c262d"/>
      <path id="Pfad_22" data-name="Pfad 22" d="M89.214,147.575H87.929a4.232,4.232,0,0,1-4.44-4.44V126.777H80.1v-1.87h3.388V120h2.1v5.024h3.622v1.87H85.592v16.358c0,1.636.935,2.687,2.337,2.687h1.285Z" transform="translate(-10.344 -117.663)" fill="#2c262d"/>
      <path id="Pfad_23" data-name="Pfad 23" d="M90.817,132.537v-1.285c0-3.856,2.337-6.426,5.609-6.426s5.609,2.571,5.609,6.426v16.475h-2.1v-2.1a5.478,5.478,0,0,1-4.44,2.337c-2.8,0-4.791-2.1-4.791-5.609v-1.636c0-3.505,2.454-5.375,5.725-5.609l3.505-.351V130.9c0-2.687-1.4-4.44-3.505-4.44s-3.505,1.753-3.505,4.44v1.519h-2.1Zm9,9.581V136.86l-3.505.351c-2.337.234-3.622,1.519-3.622,3.622v1.753a3.439,3.439,0,0,0,3.505,3.739C98.178,146.208,99.7,144.572,99.814,142.118ZM92.92,119.1h1.753v2.921H92.92Zm5.141,0h1.753v2.921H98.061Z" transform="translate(-8.559 -117.815)" fill="#2c262d"/>
      <path id="Pfad_24" data-name="Pfad 24" d="M106.6,146.9h-2.1V124.234h2.1v2.687A6.159,6.159,0,0,1,111.627,124v1.869c-2.921,0-5.024,2.22-5.024,5.375Z" transform="translate(-6.234 -116.989)" fill="#2c262d"/>
    </g>
  </g>
</svg>
