<svg xmlns="http://www.w3.org/2000/svg" width="18.499" height="11.452" viewBox="0 0 18.499 11.452">
  <g id="Gruppe_311" data-name="Gruppe 311" transform="translate(-293 -432)">
    <g id="Pfad_25" data-name="Pfad 25" transform="translate(293 432)" fill="none">
      <path d="M9.249,0C14.358,0,18.5,4.793,18.5,5.726s-4.141,5.726-9.249,5.726S0,6.7,0,5.726,4.141,0,9.249,0Z" stroke="none"/>
      <path d="M 9.249417304992676 1.5 C 7.065957069396973 1.5 5.168937683105469 2.550530433654785 3.962017059326172 3.43181037902832 C 2.721750259399414 4.337436199188232 1.948755264282227 5.24767541885376 1.624153137207031 5.725830078125 C 1.948755264282227 6.20398473739624 2.721750259399414 7.114223957061768 3.962017059326172 8.01984977722168 C 5.168937683105469 8.901129722595215 7.065957069396973 9.95166015625 9.249417304992676 9.95166015625 C 11.42573738098145 9.95166015625 13.32302665710449 8.896180152893066 14.53141784667969 8.010749816894531 C 15.75714302062988 7.112612724304199 16.53144836425781 6.209328174591064 16.86541557312012 5.725830078125 C 16.53144836425781 5.242331981658936 15.75714302062988 4.339047431945801 14.53141784667969 3.440910339355469 C 13.32302665710449 2.555480003356934 11.42573738098145 1.5 9.249417304992676 1.5 M 9.249417304992676 0 C 14.35772705078125 0 18.49883651733398 4.792870044708252 18.49883651733398 5.725830078125 C 18.49883651733398 6.658790111541748 14.35772705078125 11.45166015625 9.249417304992676 11.45166015625 C 4.141107559204102 11.45166015625 -1.9073486328125e-06 6.696480274200439 -1.9073486328125e-06 5.725830078125 C -1.9073486328125e-06 4.755179882049561 4.141107559204102 0 9.249417304992676 0 Z" stroke="none" fill="#848484"/>
    </g>
    <g id="Ellipse_15" data-name="Ellipse 15" transform="translate(298.749 434.226)" fill="none" stroke="#848484" stroke-width="1.5">
      <circle cx="3.5" cy="3.5" r="3.5" stroke="none"/>
      <circle cx="3.5" cy="3.5" r="2.75" fill="none"/>
    </g>
  </g>
</svg>
